<?xml version="1.0" standalone="no"?>
<!DOCTYPE svg PUBLIC "-//W3C//DTD SVG 20010904//EN"
 "http://www.w3.org/TR/2001/REC-SVG-20010904/DTD/svg10.dtd">
<svg version="1.0" xmlns="http://www.w3.org/2000/svg"
 width="700.000000pt" height="700.000000pt" viewBox="0 0 700.000000 700.000000"
 preserveAspectRatio="xMidYMid meet">
<metadata>
Created by potrace 1.14, written by Peter Selinger 2001-2017
</metadata>
<g transform="translate(0.000000,700.000000) scale(0.100000,-0.100000)"
fill="#000000" stroke="none">
<path d="M3055 6315 c-30 -29 -31 -50 -5 -135 22 -73 66 -264 75 -325 3 -22 9
-53 12 -70 4 -16 7 -39 8 -50 4 -34 16 -129 20 -155 11 -63 19 -242 19 -420 1
-177 -1 -202 -22 -270 -72 -232 -224 -420 -584 -721 -102 -87 -168 -149 -172
-164 -13 -50 31 -105 84 -105 34 0 239 162 386 305 107 103 146 138 139 125
-7 -14 -125 -176 -152 -210 -425 -529 -576 -817 -620 -1178 -14 -114 -7 -374
14 -537 12 -94 55 -287 85 -380 17 -55 32 -102 33 -105 1 -3 7 -18 13 -33 65
-156 93 -210 178 -337 63 -95 77 -113 163 -203 l46 -48 -55 21 c-516 199 -885
621 -989 1130 -69 342 -29 593 135 828 51 73 59 98 45 134 -18 48 -74 63 -122
33 -42 -26 -162 -233 -201 -345 -69 -202 -72 -457 -8 -745 46 -205 192 -501
324 -655 64 -75 224 -228 281 -271 33 -24 62 -47 65 -50 3 -3 50 -33 105 -66
236 -140 421 -207 755 -272 30 -6 94 -14 143 -17 48 -4 87 -11 87 -16 0 -17
-61 -132 -96 -181 -33 -45 -39 -65 -35 -109 2 -28 42 -58 76 -58 39 0 56 12
98 73 l34 47 1 -36 c4 -109 156 -114 164 -6 1 18 5 32 8 32 3 0 18 -20 34 -45
31 -50 52 -65 91 -65 39 0 62 16 74 50 12 36 4 62 -38 123 -36 54 -91 158 -91
175 0 10 45 18 81 14 3 -1 35 3 70 8 35 5 84 12 109 16 24 3 103 21 175 39
538 136 970 468 1194 920 72 145 122 290 145 420 3 17 8 41 11 55 19 85 25
332 12 438 -15 125 -79 288 -165 422 -100 158 -325 387 -577 589 -562 450
-711 600 -831 842 -57 116 -69 180 -69 379 1 164 10 368 19 417 2 10 7 52 11
93 4 41 8 77 10 80 2 3 6 30 10 60 4 30 8 57 10 60 2 3 6 26 10 50 4 25 23
106 42 180 50 190 50 194 19 224 -31 32 -80 34 -157 7 -107 -37 -177 -88 -257
-186 l-32 -40 -32 40 c-76 94 -155 151 -253 185 -80 28 -130 26 -160 -5z m258
-254 c42 -45 108 -164 127 -226 6 -22 15 -49 20 -60 8 -19 49 -166 85 -300 38
-142 83 -370 75 -375 -4 -3 -66 -5 -136 -5 l-128 1 -2 109 c-4 183 -15 329
-35 475 -10 73 -14 97 -25 170 -8 49 -44 231 -51 253 -7 27 23 9 70 -42z m420
-61 c-13 -63 -32 -169 -42 -234 l-17 -119 -43 132 -42 133 40 67 c34 58 117
149 126 139 1 -2 -8 -55 -22 -118z m-225 -1377 c1 -16 4 -39 7 -53 9 -42 25
-123 31 -155 12 -71 69 -283 119 -445 80 -259 141 -492 161 -610 2 -14 9 -54
14 -90 6 -36 13 -78 16 -95 25 -156 25 -749 -1 -962 -3 -21 -10 -82 -16 -137
-6 -54 -13 -108 -15 -120 -2 -11 -7 -41 -10 -66 -3 -25 -8 -52 -9 -60 -67
-325 -137 -514 -225 -607 -34 -36 -67 -48 -104 -39 -76 19 -174 204 -235 441
-37 147 -72 347 -86 490 -3 33 -8 78 -10 100 -19 179 -27 682 -13 843 9 91 36
289 44 311 2 8 7 30 10 50 11 68 83 337 143 531 80 261 133 474 157 640 9 64
18 77 22 33z m-243 -284 c-18 -74 -47 -179 -64 -234 -16 -55 -47 -161 -69
-235 -51 -171 -99 -353 -107 -410 -4 -25 -8 -47 -10 -50 -2 -3 -6 -23 -9 -45
-4 -22 -8 -51 -11 -65 -26 -161 -39 -355 -38 -565 0 -154 11 -433 18 -476 2
-13 6 -55 10 -94 30 -340 103 -664 191 -854 19 -41 33 -76 31 -78 -2 -2 -34
10 -70 26 -355 159 -625 585 -707 1116 -21 135 -25 189 -25 375 1 215 12 294
67 450 25 71 85 196 146 306 22 40 202 286 336 459 145 188 255 348 306 447
19 37 36 66 37 64 2 -1 -13 -63 -32 -137z m611 -145 c34 -50 120 -165 191
-257 70 -91 135 -175 143 -187 8 -13 20 -28 27 -35 6 -6 41 -56 78 -110 150
-219 243 -439 273 -645 9 -61 9 -379 0 -461 -4 -36 -15 -103 -23 -150 -20
-113 -19 -126 10 -154 32 -33 83 -34 113 -2 69 73 102 642 51 866 -6 25 -13
57 -15 71 -23 121 -145 380 -258 548 -41 63 -149 209 -239 325 -162 211 -262
347 -255 347 2 0 44 -39 94 -87 126 -123 225 -210 404 -353 257 -205 330 -268
456 -394 278 -278 378 -486 376 -778 -1 -100 -13 -191 -43 -336 -15 -73 -70
-223 -113 -313 -143 -289 -383 -528 -693 -690 -63 -34 -214 -99 -227 -99 -3 0
20 25 49 55 137 140 292 385 277 437 -12 41 -27 58 -59 67 -49 14 -70 -5 -143
-125 -108 -181 -210 -297 -338 -385 -78 -54 -211 -124 -220 -115 -2 3 2 16 10
28 72 114 176 520 203 793 1 17 6 66 10 110 4 44 9 88 11 97 15 83 22 564 11
743 -6 100 -29 292 -42 355 -3 14 -10 52 -16 85 -5 33 -14 74 -19 90 -5 17
-21 77 -36 135 -14 57 -48 178 -76 270 -81 269 -138 478 -138 507 0 9 23 -23
51 -72 28 -50 80 -131 115 -181z"/>
<path d="M5063 2844 c-36 -18 -41 -32 -48 -149 -6 -93 -10 -121 -36 -232 -21
-90 -17 -120 23 -147 50 -35 107 -7 129 65 39 131 65 366 46 423 -6 18 -22 33
-43 42 -40 17 -32 17 -71 -2z"/>
<path d="M2205 3856 c-47 -22 -185 -157 -189 -186 -9 -61 52 -112 108 -90 11
4 46 30 76 57 109 95 120 109 120 145 0 32 -29 78 -50 78 -4 0 -14 2 -22 5 -7
2 -26 -2 -43 -9z"/>
</g>
</svg>
